<svg width="162" height="27" viewBox="0 0 162 27" fill="none" xmlns="http://www.w3.org/2000/svg">
  <g clip-path="url(#clip0_441_31515)">
    <path
      d="M101.27 13.8399C100.85 13.5178 100.385 13.2466 99.8736 13.0267C99.3618 12.8065 98.8532 12.62 98.3466 12.4666C97.8402 12.313 97.3772 12.1547 96.9579 11.9911C96.5385 11.8273 96.1957 11.605 95.9298 11.3237C95.6639 11.0424 95.531 10.6918 95.531 10.2724C95.531 9.79159 95.6818 9.41808 95.9836 9.15219C96.2852 8.88585 96.7072 8.75319 97.2494 8.75319C97.7917 8.75319 98.2213 8.91683 98.5384 9.24409C98.8556 9.57149 99.0141 10.037 99.0141 10.6406H102.666C102.666 9.15753 102.162 7.95521 101.155 7.03465C100.147 6.11395 98.8456 5.65344 97.2494 5.65344C95.7865 5.65344 94.5795 6.08327 93.6279 6.94246C92.6769 7.80181 92.201 8.91163 92.201 10.2724C92.201 10.9068 92.2802 11.4719 92.4391 11.968C92.5974 12.4642 92.8097 12.8733 93.0759 13.1954C93.3416 13.5178 93.6459 13.7991 93.9888 14.0394C94.3314 14.2799 94.692 14.4744 95.0706 14.6226C95.4491 14.7708 95.8275 14.9092 96.2059 15.037C96.5846 15.1649 96.9452 15.29 97.2879 15.4129C97.6305 15.5357 97.9349 15.6737 98.2008 15.8269C98.4668 15.9804 98.6791 16.1775 98.8377 16.4181C98.9961 16.6585 99.0755 16.9424 99.0755 17.2698C99.0755 17.7811 98.9197 18.1777 98.6074 18.4587C98.2954 18.7402 97.8682 18.8807 97.3266 18.8807C96.7738 18.8807 96.3365 18.7143 96.0141 18.3822C95.6919 18.0498 95.531 17.5767 95.531 16.9626H91.9093C91.9093 18.4563 92.4159 19.6664 93.4285 20.5918C94.4414 21.5178 95.7408 21.9804 97.3266 21.9804C98.9118 21.9804 100.203 21.5456 101.201 20.6763C102.198 19.8066 102.697 18.6711 102.697 17.2698C102.697 16.4716 102.564 15.7814 102.298 15.198C102.032 14.615 101.689 14.1623 101.27 13.8399Z"
      fill="#FFFEFE" />
    <path
      d="M79.2058 12.109C79.4925 11.0862 80.0166 10.2857 80.7787 9.70751C81.5408 9.12932 82.4692 8.8406 83.5637 8.8406C84.648 8.8406 85.5717 9.12932 86.3337 9.70751C87.0957 10.2857 87.61 11.0862 87.8758 12.109H79.2058ZM83.5637 5.6488C81.1802 5.6488 79.2238 6.41345 77.6945 7.94286C76.1651 9.47215 75.4001 11.4286 75.4001 13.8121C75.4001 16.206 76.1625 18.1649 77.6866 19.6892C79.2111 21.2137 81.1701 21.9758 83.5637 21.9758C85.3643 21.9758 86.9552 21.5512 88.3359 20.7021C89.7172 19.8529 90.6224 18.697 91.0521 17.2342H87.0318C86.3362 18.2674 85.1802 18.7838 83.5637 18.7838C82.4078 18.7838 81.441 18.4669 80.6634 17.8326C79.8861 17.1983 79.3695 16.3187 79.1139 15.1934H91.6197C91.7015 14.6001 91.7428 14.1395 91.7428 13.8121C91.7428 11.4286 90.975 9.47215 89.4407 7.94286C87.9064 6.41345 85.9475 5.6488 83.5637 5.6488Z"
      fill="#FFFEFE" />
    <path
      d="M108.203 2.39819H104.628V5.95607H102.894V9.28615H104.628V16.1145C104.628 19.8177 106.49 21.6691 110.214 21.6691H113.052V18.3393H110.474C108.96 18.3393 108.203 17.5978 108.203 16.1145V9.28615H113.052V5.95607H108.203V2.39819Z"
      fill="#FFFEFE" />
    <path d="M75.6794 5.95911L70.9071 8.0307V5.95911H67.2703V21.6722H70.9071V11.6522L75.6794 9.70314V5.95911Z"
      fill="#FFFEFE" />
    <path
      d="M124.739 17.3263C123.911 18.2062 122.817 18.6457 121.456 18.6457C120.075 18.6457 118.965 18.2034 118.126 17.3185C117.287 16.4338 116.868 15.2651 116.868 13.8125C116.868 12.3596 117.287 11.191 118.126 10.3061C118.965 9.4213 120.075 8.97859 121.456 8.97859C122.817 8.97859 123.911 9.41893 124.739 10.2984C125.568 11.1782 125.982 12.3497 125.982 13.8125C125.982 15.2751 125.568 16.4465 124.739 17.3263ZM121.456 5.6488C119.072 5.6488 117.116 6.41359 115.586 7.94331C114.057 9.47229 113.292 11.4289 113.292 13.8125C113.292 16.2061 114.054 18.1649 115.579 19.6892C117.103 21.2137 119.062 21.9758 121.456 21.9758C123.849 21.9758 125.811 21.2137 127.34 19.6892C128.869 18.1649 129.634 16.2061 129.634 13.8125C129.634 11.4289 128.867 9.47229 127.333 7.94331C125.798 6.41359 123.84 5.6488 121.456 5.6488Z"
      fill="#FFFEFE" />
    <path
      d="M54.5364 10.306C55.3754 9.42086 56.485 8.97859 57.8661 8.97859C59.2267 8.97859 60.3214 9.41834 61.15 10.2983C61.9785 11.1778 62.3932 12.3493 62.3932 13.8121C62.3932 15.2752 61.9785 16.4463 61.15 17.3262C60.3214 18.2057 59.2267 18.6457 57.8661 18.6457C56.485 18.6457 55.3754 18.2035 54.5364 17.3186C53.6976 16.4338 53.278 15.265 53.278 13.8121C53.278 12.3594 53.6976 11.1908 54.5364 10.306ZM51.9891 19.6892C53.5136 21.2133 55.4724 21.9758 57.8661 21.9758C59.6768 21.9758 61.1859 21.4336 62.3932 20.3492V21.6685H66.045V5.95576H62.3932V7.27531C61.1448 6.19097 59.6359 5.6488 57.8661 5.6488C55.4826 5.6488 53.5261 6.4133 51.9967 7.94302C50.4673 9.47229 49.7028 11.4286 49.7028 13.8121C49.7028 16.206 50.465 18.1649 51.9891 19.6892Z"
      fill="#FFFEFE" />
    <path
      d="M137.817 5.6488C136.283 5.6488 135.015 6.15007 134.012 7.15259V5.95576H130.375V21.669H134.012V12.247C134.012 11.2652 134.306 10.4747 134.894 9.87647C135.483 9.27799 136.277 8.97859 137.28 8.97859C138.241 8.97859 139.021 9.28036 139.62 9.88388C140.219 10.4876 140.517 11.2755 140.517 12.247V21.669H144.139V12.247C144.139 10.3137 143.548 8.73063 142.367 7.49808C141.185 6.26524 139.669 5.6488 137.817 5.6488Z"
      fill="#FFFEFE" />
    <path d="M45.2091 11.652L49.9815 9.70344V5.95911L45.2091 8.0307V5.95911H41.5724V21.6722H45.2091V11.652Z"
      fill="#FFFEFE" />
    <path
      d="M148.755 12.109C149.042 11.086 149.566 10.2855 150.328 9.70751C151.09 9.12932 152.02 8.8406 153.114 8.8406C154.197 8.8406 155.122 9.12932 155.883 9.70751C156.645 10.2855 157.16 11.086 157.425 12.109H148.755ZM161.292 13.8121C161.292 11.4286 160.525 9.47215 158.991 7.94272C157.456 6.41345 155.496 5.6488 153.114 5.6488C150.73 5.6488 148.773 6.41345 147.243 7.94272C145.714 9.47215 144.95 11.4286 144.95 13.8121C144.95 16.206 145.712 18.1649 147.236 19.6892C148.761 21.2137 150.719 21.9758 153.114 21.9758C154.913 21.9758 156.504 21.5513 157.886 20.7019C159.266 19.8529 160.172 18.697 160.602 17.2342H156.581C155.885 18.2674 154.729 18.7837 153.114 18.7837C151.958 18.7837 150.991 18.4669 150.213 17.8326C149.435 17.1983 148.92 16.3186 148.664 15.1932H161.17C161.252 14.6001 161.292 14.1395 161.292 13.8121Z"
      fill="#FFFEFE" />
    <path d="M13.7953 20.2891H23.8117L28.8199 11.6145L23.8117 2.93994H13.7953L8.78708 11.6145L13.7953 20.2891Z"
      stroke="#FFFFFFb3" stroke-width="1.05665" />
    <path d="M20.0928 9.37646H17.5142L16.2251 11.6095L17.5142 13.8424H20.0928L21.3817 11.6095L20.0928 9.37646Z"
      stroke="#FFFFFFb3" stroke-width="1.05665" stroke-miterlimit="10" />
    <path
      d="M23.8118 2.93994L13.7953 20.2891M11.0401 15.5173L26.5668 7.71206M26.405 15.7975L11.2019 7.43164M18.8035 24.3001V2.93994M13.7953 2.93994L23.8118 20.2891"
      stroke="#FFFFFFb3" stroke-width="1.05665" stroke-miterlimit="10" />
    <path d="M18.8036 11.6084C11.3185 11.6084 3.83324 11.6084 3.83324 11.6084" stroke="#FFFFFFb3" stroke-width="1.05665"
      stroke-miterlimit="10" />
    <path d="M18.8039 11.6084C26.289 11.6084 33.7744 11.6084 33.7744 11.6084" stroke="#FFFFFFb3" stroke-width="1.05665"
      stroke-miterlimit="10" />
    <path
      d="M18.7442 24.6428L23.8492 20.3386L33.7741 11.6145L23.8117 2.93994H13.7952L3.83324 11.6145L14.8043 21.2837L18.7442 24.6428Z"
      stroke="#FFFFFFb3" stroke-width="1.05665" stroke-miterlimit="10" />
  </g>
  <defs>
    <clipPath id="clip0_441_31515">
      <rect width="161.218" height="26.0794" fill="#FFFFFFb3" transform="translate(0.596756 0.170898)" />
    </clipPath>
  </defs>
</svg>